<svg xmlns="http://www.w3.org/2000/svg" width="30" height="30.412" viewBox="0 0 30 30.412">
  <g id="add" transform="translate(-322 -673.588)">
    <g id="그룹_362" data-name="그룹 362">
      <g id="icon" transform="translate(323 670.402)">
        <path id="패스_491" data-name="패스 491" d="M3.925,16.59l-1.645,3.2a.293.293,0,0,1-.561,0L.075,16.59A.732.732,0,0,1,0,16.259V.538C0,.241.159,0,.355,0H3.645C3.841,0,4,.241,4,.538V16.259A.732.732,0,0,1,3.925,16.59Z" transform="translate(24.027 4.597) rotate(42)" fill="none" stroke="#fff" stroke-linecap="round" stroke-miterlimit="10" stroke-width="2"/>
        <path id="패스_492" data-name="패스 492" d="M83,31.18v8.53A1.351,1.351,0,0,1,81.594,41H64.406A1.351,1.351,0,0,1,63,39.71V18.29A1.351,1.351,0,0,1,64.406,17h13.84" transform="translate(-62 -9.402)" fill="none" stroke="#fff" stroke-linecap="round" stroke-miterlimit="10" stroke-width="2"/>
        <rect id="area" width="30" height="30" transform="translate(-1 3.598)" fill="none"/>
      </g>
    </g>
  </g>
</svg>
